<?xml version="1.0" encoding="utf-8"?>
<!-- Generator: Adobe Illustrator 18.1.1, SVG Export Plug-In . SVG Version: 6.00 Build 0)  -->
<svg version="1.1" id="Layer_1" xmlns="http://www.w3.org/2000/svg" xmlns:xlink="http://www.w3.org/1999/xlink" x="0px" y="0px"
	 viewBox="0 0 226.7 291.6" enable-background="new 0 0 226.7 291.6" xml:space="preserve">
<g>
	<path fill-rule="evenodd" clip-rule="evenodd" fill="#D0E0EF" d="M119.2,7.7c11.9,0,22,20.4,22,45.6c0,25.2-9.6,45.6-21.5,45.6
		c-11.9,0-28.2-8.8-28.2-34C91.5,39.7,107.4,7.7,119.2,7.7"/>
	<path fill-rule="evenodd" clip-rule="evenodd" fill="#D0E0EF" d="M132.2,239.2c33.5-5.9,40.4-33.2,31.7-77.5
		c-7.8-39.9,19.9-50.9,29.2-67.5c5.1-9.1,3.7-11.8-20.6,0.3c-20.6,10.2-46.2,30.5-56.3,49.8C86.7,201.4,93.9,246,132.2,239.2"/>
	<path fill-rule="evenodd" clip-rule="evenodd" fill="#EDF3F9" d="M140.3,179.9c9.7,0,18,11.4,18,25.6c0,14.1-7.9,25.6-17.6,25.6
		c-9.7,0-23.1-5-23.1-19.1C117.6,197.9,130.6,179.9,140.3,179.9"/>
	<path fill-rule="evenodd" clip-rule="evenodd" fill="#B3CCE5" d="M148.3,177c6,0,11.1,7.1,11.1,15.8c0,8.7-4.9,15.8-10.9,15.8
		c-6,0-14.3-3.1-14.3-11.8C134.3,188.1,142.3,177,148.3,177"/>
	<path fill-rule="evenodd" clip-rule="evenodd" fill="#9DBCDB" d="M142.2,180.1c7.8,1.2,14.3,9.6,15.8,20.6c-1.9,4.8-5.4,8-9.4,8
		c-6,0-14.3-3.1-14.3-11.8C134.3,191,137.9,184,142.2,180.1"/>
	<path fill-rule="evenodd" clip-rule="evenodd" fill="#BECEDD" d="M83.6,256.4c-30.2-5.8-47.8-50.6-45.1-95
		c1.7-28.8-11.6-66.7-8.2-63.3c19,19.4,45.6,12.3,54.6,31.2c22.5,47-32.7,43.5,8.2,128.5C95.2,262.3,89,257.4,83.6,256.4"/>
	<path fill-rule="evenodd" clip-rule="evenodd" fill="#DCE7F2" d="M75.4,239c-3.6,4.6-10.9,3.1-16.1-3.5c-5.2-6.6-6.6-15.7-3-20.2
		c3.6-4.6,10.3-8.6,15.6-2C77.1,219.9,79,234.4,75.4,239"/>
	<path fill-rule="evenodd" clip-rule="evenodd" fill="#9FB6CE" d="M64.2,225.2c-1.9,2.5-5.8,1.7-8.6-1.9c-2.8-3.5-3.5-8.4-1.6-10.8
		c1.9-2.5,5.5-4.6,8.3-1.1C65.1,215,66.1,222.8,64.2,225.2"/>
	<path fill-rule="evenodd" clip-rule="evenodd" fill="#91A9C1" d="M54.4,221.5c0.1-2.4,0.7-4.6,2-6.3c1.4-1.8,3.2-3.5,5.3-4.5
		c0.2,0.2,0.4,0.4,0.6,0.7c2.8,3.5,3.8,11.3,1.9,13.8c-1.9,2.5-5.8,1.7-8.6-1.9C55.1,222.8,54.7,222.2,54.4,221.5"/>
	<path fill-rule="evenodd" clip-rule="evenodd" fill="#677284" d="M226.4,59.7c-3.2,0.7-4.3,2.9-6.9,5.1
		c-22.7,19.3-76.2,38.3-94.3,62.8c-2.5,3.4-9.1,12.1-7.9,17.2c0,0,1.4,1,1.9-0.2c15.8-38.1,63.8-48.3,96.4-74.6
		c-1.2,1.8-16.1,14.2-25.8,31.3c-26.5,46.8,8,81.8-10.1,116.3c-12.5,23.7-55,36.4-70.5,26c-2.1,0.5-3.8,1.1-3.3,3.1
		c4.1,0.9,10,3,14.5,2.7c19.4-1.1,38.4-6.2,52.4-19.2c35.3-33-3.3-84,16.1-121.8c2.6-5.1,5.6-10.3,9-15c2-2.7,3.9-5.1,6.3-8
		C213.5,74.5,228.9,62.2,226.4,59.7 M12.2,74.2c-1.3-1.5-8.5-11.6-8.9-13.1c-0.9,1.9-1.8,2.1-3.1,3.3c-0.6,0.6,2,2.3,11.5,16.2
		c16.3,23.8,18.7,53.4,18.7,81.5c0,8.8,0.1,22.2,1.8,30.8c5.8,29.6,11.7,50,36.1,65.3c3.6,2.2,21.3,8.6,25.2,8.6
		c1.3,0,2.3-2.8,2-4.2c-3.9,0-18.1-4.8-22.1-6.4c-15.8-6.1-26.3-22.4-31.3-37.9c-6.5-19.9-8.8-36.3-8.8-60.7
		c0-22.4-1.9-49.7-12.8-70.3c0.2,0,8,6.1,9.7,7.1c25.2,14,54.4,13.1,65.3,36.3c2.5,5.4,2.3,7.2,2.9,14.1c7.7-1.8-4.6-25.3-10.2-29.5
		C69.4,101.6,38.2,101.8,12.2,74.2z M131.9,0c-3.3,14-35.7,43.1-35.7,70.6c0,11,2.1,12.6,5,20.7c1.7,4.6,8.1,10,13.2,10l0.3-1.7
		c-12.2-2.8-16.2-18.8-16.2-30.1C98.4,48,132.6,9,133,4.5c0.4,0.3,9.6,19.8,10.5,21.9c5,12.6,6.5,18.6,6.5,33.4
		c0,15.2-12.2,34.4-20,45.9c-3.7,5.4-10.6,13.9-13.4,19.6c-0.7,1.4-4.7,7.5-7.8,12.7c-2.2,3.6-4.8,7.4-6.6,11
		c-2.4,4.6-5,10.1-6.6,14.9c-3.2,9.7-6.5,24-7.2,27.8c-3.9,19.1-0.4,44.4,6.6,62.4c1.8,4.5,5.1,10.6,8.8,16.1
		c4,5.9,8.9,11.5,13.7,16.8c3.4,3.7,7,6.8,7,2.9c0-0.3-6.1-6.3-6.9-7c-7.3-7.3-12.1-16-17.5-24.9c-5.3-8.6-9.9-32.1-9.9-46.5
		c0-28.3,7.7-50.6,21.7-72.6c1.7-2.6,3.7-5.8,5.2-8.5c15-28.8,51.9-56.7,28.6-105.2c-3.4-7.1-8.5-15.6-10.6-23.2
		C134.6,0,134.3,0.1,131.9,0z"/>
</g>
</svg>
